<svg width="934" height="267" viewBox="0 0 934 267" fill="none" xmlns="http://www.w3.org/2000/svg">
<rect x="1" y="161" width="345" height="78" stroke="#FF7448" stroke-width="2"/>
<line x1="201" y1="-4.37114e-08" x2="201" y2="160" stroke="#FF7448" stroke-width="2"/>
<line x1="934" y1="198" x2="362" y2="198" stroke="#FF7448" stroke-width="2"/>
<line x1="933" y1="196" x2="933" y2="1" stroke="#FF7448" stroke-width="2" stroke-dasharray="4 4"/>
<line x1="934" y1="1" x2="200" y2="1" stroke="#FF7448" stroke-width="2" stroke-dasharray="4 4"/>
<rect x="230" y="64" width="45" height="40" rx="5" fill="#FF7448"/>
<path d="M245.783 89H243.671V83.2168C243.671 83.0573 243.673 82.8613 243.678 82.6289C243.682 82.3919 243.689 82.1504 243.698 81.9043C243.707 81.6536 243.716 81.4281 243.726 81.2275C243.675 81.2868 243.573 81.3893 243.418 81.5352C243.268 81.6764 243.126 81.804 242.994 81.918L241.846 82.8408L240.827 81.5693L244.047 79.0059H245.783V89ZM248.504 84.7549C248.504 84.1807 248.545 83.6133 248.627 83.0527C248.714 82.4876 248.862 81.9567 249.071 81.46C249.281 80.9587 249.575 80.5166 249.953 80.1338C250.331 79.7464 250.812 79.4434 251.396 79.2246C251.979 79.0013 252.685 78.8896 253.515 78.8896C253.711 78.8896 253.938 78.8988 254.198 78.917C254.463 78.9307 254.681 78.9557 254.854 78.9922V80.6807C254.672 80.6396 254.476 80.6077 254.267 80.585C254.062 80.5576 253.856 80.5439 253.651 80.5439C252.822 80.5439 252.179 80.6761 251.724 80.9404C251.272 81.2048 250.953 81.5716 250.767 82.041C250.584 82.5059 250.477 83.0482 250.445 83.668H250.534C250.662 83.4447 250.821 83.2464 251.013 83.0732C251.209 82.9001 251.446 82.7633 251.724 82.6631C252.002 82.5583 252.327 82.5059 252.701 82.5059C253.285 82.5059 253.79 82.6312 254.219 82.8818C254.647 83.1279 254.978 83.4857 255.21 83.9551C255.442 84.4245 255.559 84.9964 255.559 85.6709C255.559 86.391 255.42 87.0107 255.142 87.5303C254.864 88.0498 254.469 88.4486 253.959 88.7266C253.453 89 252.852 89.1367 252.154 89.1367C251.644 89.1367 251.168 89.0501 250.726 88.877C250.284 88.6992 249.896 88.4303 249.563 88.0703C249.231 87.7103 248.971 87.2568 248.784 86.71C248.597 86.1585 248.504 85.5068 248.504 84.7549ZM252.113 87.4482C252.528 87.4482 252.865 87.307 253.125 87.0244C253.385 86.7419 253.515 86.2998 253.515 85.6982C253.515 85.2106 253.401 84.8278 253.173 84.5498C252.95 84.2673 252.61 84.126 252.154 84.126C251.844 84.126 251.571 84.1966 251.334 84.3379C251.102 84.4746 250.922 84.6501 250.794 84.8643C250.666 85.0739 250.603 85.2904 250.603 85.5137C250.603 85.7461 250.634 85.9762 250.698 86.2041C250.762 86.432 250.858 86.6393 250.985 86.8262C251.113 87.013 251.27 87.1634 251.457 87.2773C251.648 87.3913 251.867 87.4482 252.113 87.4482ZM263.516 84.0029C263.516 84.8096 263.452 85.5296 263.324 86.1631C263.201 86.7965 263.001 87.3343 262.723 87.7764C262.449 88.2184 262.089 88.5557 261.643 88.7881C261.196 89.0205 260.654 89.1367 260.016 89.1367C259.214 89.1367 258.555 88.9339 258.04 88.5283C257.525 88.1182 257.145 87.5303 256.898 86.7646C256.652 85.9945 256.529 85.0739 256.529 84.0029C256.529 82.9229 256.641 82 256.864 81.2344C257.092 80.4642 257.461 79.874 257.972 79.4639C258.482 79.0537 259.163 78.8486 260.016 78.8486C260.813 78.8486 261.469 79.0537 261.984 79.4639C262.504 79.8695 262.889 80.4574 263.14 81.2275C263.39 81.9932 263.516 82.9183 263.516 84.0029ZM258.628 84.0029C258.628 84.764 258.669 85.3997 258.751 85.9102C258.838 86.416 258.981 86.7965 259.182 87.0518C259.382 87.307 259.66 87.4346 260.016 87.4346C260.367 87.4346 260.642 87.3092 260.843 87.0586C261.048 86.8034 261.194 86.4229 261.28 85.917C261.367 85.4066 261.41 84.7686 261.41 84.0029C261.41 83.2419 261.367 82.6061 261.28 82.0957C261.194 81.5853 261.048 81.2025 260.843 80.9473C260.642 80.6875 260.367 80.5576 260.016 80.5576C259.66 80.5576 259.382 80.6875 259.182 80.9473C258.981 81.2025 258.838 81.5853 258.751 82.0957C258.669 82.6061 258.628 83.2419 258.628 84.0029Z" fill="white"/>
<rect x="580" y="227" width="45" height="40" rx="5" fill="#FF7448"/>
<path d="M590.492 247.755C590.492 247.181 590.533 246.613 590.615 246.053C590.702 245.488 590.85 244.957 591.06 244.46C591.269 243.959 591.563 243.517 591.941 243.134C592.32 242.746 592.8 242.443 593.384 242.225C593.967 242.001 594.674 241.89 595.503 241.89C595.699 241.89 595.927 241.899 596.187 241.917C596.451 241.931 596.67 241.956 596.843 241.992V243.681C596.66 243.64 596.465 243.608 596.255 243.585C596.05 243.558 595.845 243.544 595.64 243.544C594.81 243.544 594.168 243.676 593.712 243.94C593.261 244.205 592.942 244.572 592.755 245.041C592.573 245.506 592.465 246.048 592.434 246.668H592.522C592.65 246.445 592.81 246.246 593.001 246.073C593.197 245.9 593.434 245.763 593.712 245.663C593.99 245.558 594.316 245.506 594.689 245.506C595.273 245.506 595.779 245.631 596.207 245.882C596.635 246.128 596.966 246.486 597.198 246.955C597.431 247.424 597.547 247.996 597.547 248.671C597.547 249.391 597.408 250.011 597.13 250.53C596.852 251.05 596.458 251.449 595.947 251.727C595.441 252 594.84 252.137 594.143 252.137C593.632 252.137 593.156 252.05 592.714 251.877C592.272 251.699 591.884 251.43 591.552 251.07C591.219 250.71 590.959 250.257 590.772 249.71C590.586 249.159 590.492 248.507 590.492 247.755ZM594.102 250.448C594.516 250.448 594.854 250.307 595.113 250.024C595.373 249.742 595.503 249.3 595.503 248.698C595.503 248.211 595.389 247.828 595.161 247.55C594.938 247.267 594.598 247.126 594.143 247.126C593.833 247.126 593.559 247.197 593.322 247.338C593.09 247.475 592.91 247.65 592.782 247.864C592.655 248.074 592.591 248.29 592.591 248.514C592.591 248.746 592.623 248.976 592.687 249.204C592.75 249.432 592.846 249.639 592.974 249.826C593.101 250.013 593.258 250.163 593.445 250.277C593.637 250.391 593.855 250.448 594.102 250.448ZM605.784 249.929H604.581V252H602.517V249.929H598.251V248.459L602.633 242.006H604.581V248.288H605.784V249.929ZM602.517 248.288V246.593C602.517 246.433 602.519 246.244 602.523 246.025C602.533 245.807 602.542 245.588 602.551 245.369C602.56 245.15 602.569 244.957 602.578 244.788C602.592 244.615 602.601 244.494 602.605 244.426H602.551C602.464 244.613 602.373 244.795 602.277 244.973C602.182 245.146 602.07 245.328 601.942 245.52L600.11 248.288H602.517ZM606.516 247.755C606.516 247.181 606.557 246.613 606.639 246.053C606.725 245.488 606.873 244.957 607.083 244.46C607.293 243.959 607.587 243.517 607.965 243.134C608.343 242.746 608.824 242.443 609.407 242.225C609.991 242.001 610.697 241.89 611.526 241.89C611.722 241.89 611.95 241.899 612.21 241.917C612.474 241.931 612.693 241.956 612.866 241.992V243.681C612.684 243.64 612.488 243.608 612.278 243.585C612.073 243.558 611.868 243.544 611.663 243.544C610.834 243.544 610.191 243.676 609.735 243.94C609.284 244.205 608.965 244.572 608.778 245.041C608.596 245.506 608.489 246.048 608.457 246.668H608.546C608.674 246.445 608.833 246.246 609.024 246.073C609.22 245.9 609.457 245.763 609.735 245.663C610.013 245.558 610.339 245.506 610.713 245.506C611.296 245.506 611.802 245.631 612.23 245.882C612.659 246.128 612.989 246.486 613.222 246.955C613.454 247.424 613.57 247.996 613.57 248.671C613.57 249.391 613.431 250.011 613.153 250.53C612.875 251.05 612.481 251.449 611.971 251.727C611.465 252 610.863 252.137 610.166 252.137C609.656 252.137 609.179 252.05 608.737 251.877C608.295 251.699 607.908 251.43 607.575 251.07C607.243 250.71 606.983 250.257 606.796 249.71C606.609 249.159 606.516 248.507 606.516 247.755ZM610.125 250.448C610.54 250.448 610.877 250.307 611.137 250.024C611.396 249.742 611.526 249.3 611.526 248.698C611.526 248.211 611.412 247.828 611.185 247.55C610.961 247.267 610.622 247.126 610.166 247.126C609.856 247.126 609.583 247.197 609.346 247.338C609.113 247.475 608.933 247.65 608.806 247.864C608.678 248.074 608.614 248.29 608.614 248.514C608.614 248.746 608.646 248.976 608.71 249.204C608.774 249.432 608.869 249.639 608.997 249.826C609.125 250.013 609.282 250.163 609.469 250.277C609.66 250.391 609.879 250.448 610.125 250.448Z" fill="white"/>
</svg>
